<svg xmlns="http://www.w3.org/2000/svg" viewBox="0 0 209.88 55"><defs><style>.cls-1{fill:#fff;}</style></defs><g id="レイヤー_2" data-name="レイヤー 2"><g id="レイヤー_1-2" data-name="レイヤー 1"><path class="cls-1" d="M84.74,8.24c11.49,0,19.86,8.19,19.86,19.63S96.23,47.5,84.74,47.5s-19.8-8.19-19.8-19.63S73.3,8.24,84.74,8.24Zm0,7.17c-7,0-11.49,5.35-11.49,12.46s4.49,12.46,11.49,12.46,11.55-5.4,11.55-12.46S91.74,15.41,84.74,15.41Z"/><path class="cls-1" d="M126.62,44a11.35,11.35,0,0,1-8.7,3.53c-4.38,0-9.56-3-9.56-9.1,0-6.43,5.18-8.77,9.56-8.77,3.64,0,6.88,1.14,8.7,3.36V29.18c0-2.79-2.39-4.61-6-4.61a11.56,11.56,0,0,0-8,3.24L109.84,23a18,18,0,0,1,12-4.33c6.26,0,12,2.51,12,10.41V46.82h-7.23Zm0-7.17c-1.19-1.59-3.47-2.39-5.8-2.39-2.85,0-5.18,1.48-5.18,4.16s2.33,4,5.18,4c2.33,0,4.61-.8,5.8-2.39Z"/><path class="cls-1" d="M140.28,11a4.33,4.33,0,1,1,4.33,4.32A4.36,4.36,0,0,1,140.28,11Zm.74,8.36h7.23V46.82H141Z"/><path class="cls-1" d="M156.16,38.17a15.71,15.71,0,0,0,9.5,3.75c3.13,0,4.61-1.08,4.61-2.78,0-1.94-2.39-2.62-5.52-3.25-4.72-.91-10.81-2-10.81-8.59,0-4.61,4-8.65,11.27-8.65a17.56,17.56,0,0,1,11.09,3.76l-2.9,4.95a11.57,11.57,0,0,0-8.14-3.19c-2.61,0-4.32,1-4.32,2.56s2.16,2.33,5.23,3c4.73.91,11,2.16,11,9,0,5-4.27,8.82-11.89,8.82-4.78,0-9.39-1.59-12.29-4.27Z"/><path class="cls-1" d="M180.8,33.05c0-7.8,5.46-14.4,14.51-14.4s14.57,6.6,14.57,14.4S204.41,47.5,195.31,47.5,180.8,40.9,180.8,33.05Zm21.56,0c0-4.27-2.56-8-7.05-8s-7,3.7-7,8,2.5,8,7,8S202.36,37.37,202.36,33.05Z"/><path class="cls-1" d="M55,27.5A27.5,27.5,0,1,1,27.5,0,27.5,27.5,0,0,1,55,27.5ZM8,27.19c0,4.09,1.44,7.09,4.65,7.09s4.64-3,4.64-7.09-1.44-7.09-4.64-7.09S8,23.1,8,27.19Zm6.1,0c0,2.5-.37,4.33-1.45,4.33s-1.46-1.83-1.46-4.33.37-4.34,1.46-4.34S14.07,24.66,14.07,27.19Zm9,6.84h2.75V27.17c0-2.29-1.5-3.31-3.63-3.31a5.31,5.31,0,0,0-3.64,1.35l1,2a3.21,3.21,0,0,1,2.06-1c1,0,1.48.64,1.48,1.64v1.05a2.56,2.56,0,0,0-2.16-1.11c-1.58,0-2.75,1.13-2.75,3.21s1.17,3.29,2.75,3.29a2.66,2.66,0,0,0,2.16-1.19Zm0-2.42a1.19,1.19,0,0,1-1.11.82c-.68,0-1-.58-1-1.4s.37-1.4,1-1.4a1.21,1.21,0,0,1,1.11.85Zm5.82-8.78a1.63,1.63,0,0,0,1.64-1.62,1.64,1.64,0,1,0-3.27,0A1.62,1.62,0,0,0,28.9,22.83ZM27.5,34h2.79V24.1H27.5ZM31.28,33a4.67,4.67,0,0,0,3.5,1.32,3.2,3.2,0,0,0,3.51-3.13c0-2.26-1.66-2.91-2.86-3.41-.67-.29-1.21-.53-1.21-1s.39-.72.93-.72a2.86,2.86,0,0,1,2,.9l1.09-1.87a4.78,4.78,0,0,0-3.17-1.21c-2.28,0-3.43,1.39-3.43,3,0,2.24,1.59,2.88,2.76,3.35.67.29,1.23.53,1.23,1.05s-.43.84-1.13.84a3.22,3.22,0,0,1-2.12-1.05Zm11.78,1.32c2.78,0,4-2.47,4-5.22s-1.25-5.2-4-5.2-4,2.44-4,5.2S40.29,34.28,43.06,34.28Zm0-2.45c-.9,0-1.15-1.19-1.15-2.77s.25-2.76,1.15-2.76,1.17,1.2,1.17,2.76S44,31.83,43.06,31.83Z"/></g></g></svg>